# xmcd CD database file
#
# Track frame offsets:
#	150
#	17282
#	32065
#	42860
#	55992
#	92229
#	106370
#	118470
#	163397
#	189685
#
# Disc length: 3114 seconds
#
# Revision: 1
# Processed by: cddbd v1.4PL0 Copyright (c) Steve Scherf et al.
# Submitted via: CDex 1.50
#
DISCID=880c280a
DTITLE=Various Artist - Jazz Concerts
DYEAR=1995
DGENRE=Jazz
TTITLE0=Louis Armstrong - Mack The Knife
TTITLE1=Benny Goodman - Don't Be That Way
TTITLE2=Billie Holiday - When Your Lover Has Gone 
TTITLE3=Billie Holiday - Don't Explain
TTITLE4=Duke Ellington - Blues To Be There
TTITLE5=Ella Fitzgerald - Smooth Sailing
TTITLE6=Aretha Franklin - Love For Sale 
TTITLE7=Miles Davis - Bye Bye Blackbird
TTITLE8=Count Basie - Boone's Blues
TTITLE9=Thelonious Monk - Straight, No Chaser
EXTD=YEAR: 1995
EXTT0=
EXTT1=
EXTT2=
EXTT3=
EXTT4=
EXTT5=
EXTT6=
EXTT7=
EXTT8=
EXTT9=
PLAYORDER=
